<mxfile host="app.diagrams.net" modified="2023-06-15T12:20:23.800Z" agent="Mozilla/5.0 (Windows NT 10.0; Win64; x64) AppleWebKit/537.36 (KHTML, like Gecko) Chrome/113.0.21244.127 Safari/537.36 Avast/113.0.21244.127" etag="qdZSOW7_k-e1zxV1BUjE" version="21.4.0" type="github">
  <diagram id="C5RBs43oDa-KdzZeNtuy" name="Page-1">
    <mxGraphModel dx="880" dy="490" grid="0" gridSize="10" guides="1" tooltips="1" connect="1" arrows="1" fold="1" page="1" pageScale="1" pageWidth="827" pageHeight="1169" background="none" math="0" shadow="0">
      <root>
        <mxCell id="WIyWlLk6GJQsqaUBKTNV-0" />
        <mxCell id="WIyWlLk6GJQsqaUBKTNV-1" parent="WIyWlLk6GJQsqaUBKTNV-0" />
        <mxCell id="pUvzxrTdv2hUyaOKRBch-0" value="Quiz App" style="rounded=0;whiteSpace=wrap;html=1;" vertex="1" parent="WIyWlLk6GJQsqaUBKTNV-1">
          <mxGeometry x="313" y="287" width="120" height="60" as="geometry" />
        </mxCell>
        <mxCell id="pUvzxrTdv2hUyaOKRBch-1" value="Data Storage" style="rounded=0;whiteSpace=wrap;html=1;" vertex="1" parent="WIyWlLk6GJQsqaUBKTNV-1">
          <mxGeometry x="415" y="147" width="120" height="60" as="geometry" />
        </mxCell>
        <mxCell id="pUvzxrTdv2hUyaOKRBch-2" value="User Interface" style="rounded=0;whiteSpace=wrap;html=1;" vertex="1" parent="WIyWlLk6GJQsqaUBKTNV-1">
          <mxGeometry x="115" y="198" width="120" height="60" as="geometry" />
        </mxCell>
        <mxCell id="pUvzxrTdv2hUyaOKRBch-3" value="Logic/Verification" style="rounded=0;whiteSpace=wrap;html=1;" vertex="1" parent="WIyWlLk6GJQsqaUBKTNV-1">
          <mxGeometry x="209" y="441" width="120" height="60" as="geometry" />
        </mxCell>
        <mxCell id="pUvzxrTdv2hUyaOKRBch-4" value="score calculation" style="rounded=0;whiteSpace=wrap;html=1;" vertex="1" parent="WIyWlLk6GJQsqaUBKTNV-1">
          <mxGeometry x="535" y="369" width="120" height="60" as="geometry" />
        </mxCell>
        <mxCell id="pUvzxrTdv2hUyaOKRBch-5" value="" style="endArrow=classic;html=1;rounded=0;entryX=0.35;entryY=0;entryDx=0;entryDy=0;entryPerimeter=0;exitX=1;exitY=0.5;exitDx=0;exitDy=0;" edge="1" parent="WIyWlLk6GJQsqaUBKTNV-1" source="pUvzxrTdv2hUyaOKRBch-2" target="pUvzxrTdv2hUyaOKRBch-0">
          <mxGeometry width="50" height="50" relative="1" as="geometry">
            <mxPoint x="237" y="228" as="sourcePoint" />
            <mxPoint x="353" y="286" as="targetPoint" />
            <Array as="points">
              <mxPoint x="355" y="230" />
            </Array>
          </mxGeometry>
        </mxCell>
        <mxCell id="pUvzxrTdv2hUyaOKRBch-6" value="" style="endArrow=classic;html=1;rounded=0;entryX=0.5;entryY=1;entryDx=0;entryDy=0;exitX=0.5;exitY=0;exitDx=0;exitDy=0;" edge="1" parent="WIyWlLk6GJQsqaUBKTNV-1" source="pUvzxrTdv2hUyaOKRBch-3" target="pUvzxrTdv2hUyaOKRBch-0">
          <mxGeometry width="50" height="50" relative="1" as="geometry">
            <mxPoint x="270" y="428" as="sourcePoint" />
            <mxPoint x="370" y="387" as="targetPoint" />
            <Array as="points">
              <mxPoint x="270" y="387" />
              <mxPoint x="372" y="387" />
            </Array>
          </mxGeometry>
        </mxCell>
        <mxCell id="pUvzxrTdv2hUyaOKRBch-7" value="" style="endArrow=classic;html=1;rounded=0;exitX=0.5;exitY=1;exitDx=0;exitDy=0;entryX=1;entryY=0.25;entryDx=0;entryDy=0;" edge="1" parent="WIyWlLk6GJQsqaUBKTNV-1" source="pUvzxrTdv2hUyaOKRBch-1" target="pUvzxrTdv2hUyaOKRBch-0">
          <mxGeometry width="50" height="50" relative="1" as="geometry">
            <mxPoint x="479" y="261" as="sourcePoint" />
            <mxPoint x="434" y="299" as="targetPoint" />
            <Array as="points">
              <mxPoint x="473" y="302" />
            </Array>
          </mxGeometry>
        </mxCell>
        <mxCell id="pUvzxrTdv2hUyaOKRBch-8" value="" style="endArrow=classic;html=1;rounded=0;entryX=0.75;entryY=1;entryDx=0;entryDy=0;exitX=0;exitY=0.5;exitDx=0;exitDy=0;" edge="1" parent="WIyWlLk6GJQsqaUBKTNV-1" source="pUvzxrTdv2hUyaOKRBch-4" target="pUvzxrTdv2hUyaOKRBch-0">
          <mxGeometry width="50" height="50" relative="1" as="geometry">
            <mxPoint x="541" y="398" as="sourcePoint" />
            <mxPoint x="435" y="342" as="targetPoint" />
            <Array as="points">
              <mxPoint x="405" y="399" />
            </Array>
          </mxGeometry>
        </mxCell>
        <mxCell id="pUvzxrTdv2hUyaOKRBch-10" value="Structural Model" style="text;html=1;strokeColor=none;fillColor=none;align=center;verticalAlign=middle;whiteSpace=wrap;rounded=0;" vertex="1" parent="WIyWlLk6GJQsqaUBKTNV-1">
          <mxGeometry x="311.5" y="50" width="123" height="30" as="geometry" />
        </mxCell>
      </root>
    </mxGraphModel>
  </diagram>
</mxfile>
